<svg width="19" height="21" viewBox="0 0 19 21" fill="none" xmlns="http://www.w3.org/2000/svg">
<path d="M17.2259 6.02393L11.3314 0.763932C10.7911 0.271977 10.0916 0 9.36664 0C8.64169 0 7.94217 0.271977 7.40183 0.763932L1.5074 6.02393C1.19536 6.30801 0.946349 6.65649 0.776955 7.04618C0.60756 7.43586 0.521668 7.85781 0.524995 8.28393V17.0239C0.524995 17.8196 0.835505 18.5826 1.38821 19.1453C1.94092 19.7079 2.69056 20.0239 3.47221 20.0239H15.2611C16.0427 20.0239 16.7924 19.7079 17.3451 19.1453C17.8978 18.5826 18.2083 17.8196 18.2083 17.0239V8.27393C18.2102 7.8495 18.1236 7.42947 17.9543 7.04161C17.785 6.65375 17.5367 6.30689 17.2259 6.02393ZM11.3314 18.0239H7.40183V13.0239C7.40183 12.7587 7.50533 12.5044 7.68957 12.3168C7.87381 12.1293 8.12368 12.0239 8.38423 12.0239H10.349C10.6096 12.0239 10.8595 12.1293 11.0437 12.3168C11.2279 12.5044 11.3314 12.7587 11.3314 13.0239V18.0239ZM16.2435 17.0239C16.2435 17.2892 16.14 17.5435 15.9557 17.731C15.7715 17.9186 15.5216 18.0239 15.2611 18.0239H13.2963V13.0239C13.2963 12.2283 12.9858 11.4652 12.433 10.9026C11.8803 10.34 11.1307 10.0239 10.349 10.0239H8.38423C7.60258 10.0239 6.85295 10.34 6.30024 10.9026C5.74753 11.4652 5.43702 12.2283 5.43702 13.0239V18.0239H3.47221C3.21166 18.0239 2.96178 17.9186 2.77755 17.731C2.59331 17.5435 2.48981 17.2892 2.48981 17.0239V8.27393C2.48998 8.13195 2.51986 7.99163 2.57745 7.86231C2.63505 7.73299 2.71903 7.61764 2.82382 7.52393L8.71825 2.27393C8.89753 2.11361 9.12801 2.0252 9.36664 2.0252C9.60527 2.0252 9.83575 2.11361 10.015 2.27393L15.9095 7.52393C16.0142 7.61764 16.0982 7.73299 16.1558 7.86231C16.2134 7.99163 16.2433 8.13195 16.2435 8.27393V17.0239Z" fill="#211C70"/>
</svg>
