<svg width="26" height="20" viewBox="0 0 26 20" fill="none" xmlns="http://www.w3.org/2000/svg">
<path d="M13.3727 10.2588C14.0042 9.71545 14.5106 9.04339 14.8578 8.28826C15.2049 7.53313 15.3845 6.7126 15.3845 5.88235C15.3845 4.32226 14.7611 2.82606 13.6514 1.7229C12.5418 0.619746 11.0367 2.10484e-07 9.4674 2.10484e-07C7.89808 2.10484e-07 6.39304 0.619746 5.28336 1.7229C4.17368 2.82606 3.55028 4.32226 3.55028 5.88235C3.55027 6.7126 3.72992 7.53313 4.07705 8.28826C4.42417 9.04339 4.93065 9.71545 5.5621 10.2588C3.90547 11.0046 2.49994 12.2089 1.51358 13.7277C0.52721 15.2465 0.00174183 17.0157 0 18.8235C0 19.1355 0.124682 19.4348 0.346617 19.6554C0.568552 19.8761 0.869561 20 1.18343 20C1.49729 20 1.7983 19.8761 2.02023 19.6554C2.24217 19.4348 2.36685 19.1355 2.36685 18.8235C2.36685 16.9514 3.11494 15.156 4.44655 13.8322C5.77816 12.5084 7.58422 11.7647 9.4674 11.7647C11.3506 11.7647 13.1566 12.5084 14.4882 13.8322C15.8199 15.156 16.568 16.9514 16.568 18.8235C16.568 19.1355 16.6926 19.4348 16.9146 19.6554C17.1365 19.8761 17.4375 20 17.7514 20C18.0652 20 18.3662 19.8761 18.5882 19.6554C18.8101 19.4348 18.9348 19.1355 18.9348 18.8235C18.9331 17.0157 18.4076 15.2465 17.4212 13.7277C16.4349 12.2089 15.0293 11.0046 13.3727 10.2588ZM9.4674 9.41177C8.76522 9.41177 8.07881 9.20477 7.49497 8.81695C6.91113 8.42914 6.45609 7.87792 6.18737 7.233C5.91866 6.58809 5.84835 5.87844 5.98534 5.1938C6.12233 4.50916 6.46046 3.88028 6.95698 3.38668C7.45349 2.89309 8.08609 2.55694 8.77478 2.42076C9.46346 2.28458 10.1773 2.35447 10.826 2.6216C11.4748 2.88874 12.0292 3.34111 12.4193 3.92152C12.8095 4.50193 13.0177 5.1843 13.0177 5.88235C13.0177 6.81841 12.6436 7.71613 11.9778 8.37803C11.312 9.03992 10.409 9.41177 9.4674 9.41177ZM20.994 9.78824C21.7513 8.94039 22.246 7.89301 22.4186 6.77216C22.5911 5.65132 22.4341 4.50479 21.9665 3.47059C21.4988 2.43638 20.7405 1.55858 19.7827 0.94285C18.8249 0.327118 17.7085 -0.000303059 16.568 2.10484e-07C16.2541 2.10484e-07 15.9531 0.123949 15.7311 0.34458C15.5092 0.565211 15.3845 0.864451 15.3845 1.17647C15.3845 1.48849 15.5092 1.78773 15.7311 2.00836C15.9531 2.22899 16.2541 2.35294 16.568 2.35294C17.5095 2.35294 18.4126 2.72479 19.0784 3.38668C19.7442 4.04858 20.1182 4.94629 20.1182 5.88235C20.1166 6.50028 19.9517 7.10695 19.6402 7.64167C19.3287 8.1764 18.8814 8.62045 18.3431 8.92941C18.1676 9.03002 18.0211 9.17372 17.9175 9.34675C17.8139 9.51978 17.7567 9.71635 17.7514 9.91765C17.7464 10.1174 17.7927 10.3151 17.8859 10.4921C17.9791 10.6691 18.116 10.8196 18.2839 10.9294L18.7455 11.2353L18.8993 11.3176C20.3258 11.9903 21.5292 13.0541 22.3679 14.3839C23.2065 15.7137 23.6455 17.254 23.633 18.8235C23.633 19.1355 23.7577 19.4348 23.9796 19.6554C24.2016 19.8761 24.5026 20 24.8164 20C25.1303 20 25.4313 19.8761 25.6532 19.6554C25.8752 19.4348 25.9998 19.1355 25.9998 18.8235C26.0095 17.0182 25.5547 15.2403 24.6785 13.6589C23.8024 12.0775 22.534 10.7451 20.994 9.78824Z" fill="#C7C7C7"/>
</svg>
