<svg width="14" height="14" viewBox="0 0 14 14" fill="none" xmlns="http://www.w3.org/2000/svg">
<path d="M2.1 11.2008H5.068C5.16012 11.2013 5.25145 11.1837 5.33673 11.1489C5.42202 11.114 5.49959 11.0627 5.565 10.9979L10.409 6.14828L12.397 4.20284C12.4626 4.13778 12.5147 4.06039 12.5502 3.97511C12.5858 3.88983 12.6041 3.79837 12.6041 3.70598C12.6041 3.6136 12.5858 3.52214 12.5502 3.43686C12.5147 3.35158 12.4626 3.27418 12.397 3.20913L9.429 0.206999C9.36393 0.141408 9.28651 0.089347 9.2012 0.0538192C9.1159 0.0182915 9.02441 0 8.932 0C8.83959 0 8.7481 0.0182915 8.6628 0.0538192C8.57749 0.089347 8.50007 0.141408 8.435 0.206999L6.461 2.18742L1.603 7.03702C1.53812 7.10241 1.4868 7.17996 1.45196 7.26522C1.41712 7.35048 1.39947 7.44178 1.4 7.53387V10.501C1.4 10.6866 1.47375 10.8646 1.60503 10.9958C1.7363 11.1271 1.91435 11.2008 2.1 11.2008ZM8.932 1.69057L10.913 3.67099L9.919 4.66471L7.938 2.68428L8.932 1.69057ZM2.8 7.82079L6.951 3.67099L8.932 5.65142L4.781 9.80122H2.8V7.82079ZM13.3 12.6004H0.7C0.514348 12.6004 0.336301 12.6741 0.205025 12.8054C0.0737498 12.9366 0 13.1146 0 13.3002C0 13.4858 0.0737498 13.6638 0.205025 13.795C0.336301 13.9263 0.514348 14 0.7 14H13.3C13.4857 14 13.6637 13.9263 13.795 13.795C13.9263 13.6638 14 13.4858 14 13.3002C14 13.1146 13.9263 12.9366 13.795 12.8054C13.6637 12.6741 13.4857 12.6004 13.3 12.6004Z" fill="#9997BB"/>
</svg>
