<svg width="18" height="21" viewBox="0 0 18 21" fill="none" xmlns="http://www.w3.org/2000/svg">
<path d="M12.476 12.6H6.21316C5.93633 12.6 5.67083 12.7106 5.47508 12.9075C5.27933 13.1045 5.16936 13.3715 5.16936 13.65C5.16936 13.9285 5.27933 14.1955 5.47508 14.3925C5.67083 14.5894 5.93633 14.7 6.21316 14.7H12.476C12.7528 14.7 13.0183 14.5894 13.2141 14.3925C13.4098 14.1955 13.5198 13.9285 13.5198 13.65C13.5198 13.3715 13.4098 13.1045 13.2141 12.9075C13.0183 12.7106 12.7528 12.6 12.476 12.6ZM12.476 8.4H8.30077C8.02394 8.4 7.75844 8.51062 7.56269 8.70754C7.36694 8.90445 7.25697 9.17152 7.25697 9.45C7.25697 9.72848 7.36694 9.99555 7.56269 10.1925C7.75844 10.3894 8.02394 10.5 8.30077 10.5H12.476C12.7528 10.5 13.0183 10.3894 13.2141 10.1925C13.4098 9.99555 13.5198 9.72848 13.5198 9.45C13.5198 9.17152 13.4098 8.90445 13.2141 8.70754C13.0183 8.51062 12.7528 8.4 12.476 8.4ZM14.5636 2.1H13.3319C13.1166 1.48727 12.7181 0.956548 12.1911 0.580585C11.6641 0.204622 11.0344 0.00182649 10.3884 0H8.30077C7.65471 0.00182649 7.02503 0.204622 6.49805 0.580585C5.97107 0.956548 5.57259 1.48727 5.35724 2.1H4.12555C3.29505 2.1 2.49856 2.43187 1.91131 3.02261C1.32406 3.61335 0.994141 4.41457 0.994141 5.25V17.85C0.994141 18.6854 1.32406 19.4866 1.91131 20.0774C2.49856 20.6681 3.29505 21 4.12555 21H14.5636C15.3941 21 16.1906 20.6681 16.7778 20.0774C17.3651 19.4866 17.695 18.6854 17.695 17.85V5.25C17.695 4.41457 17.3651 3.61335 16.7778 3.02261C16.1906 2.43187 15.3941 2.1 14.5636 2.1ZM7.25697 3.15C7.25697 2.87152 7.36694 2.60445 7.56269 2.40754C7.75844 2.21062 8.02394 2.1 8.30077 2.1H10.3884C10.6652 2.1 10.9307 2.21062 11.1265 2.40754C11.3222 2.60445 11.4322 2.87152 11.4322 3.15V4.2H7.25697V3.15ZM15.6074 17.85C15.6074 18.1285 15.4974 18.3955 15.3017 18.5925C15.1059 18.7894 14.8404 18.9 14.5636 18.9H4.12555C3.84872 18.9 3.58322 18.7894 3.38747 18.5925C3.19172 18.3955 3.08175 18.1285 3.08175 17.85V5.25C3.08175 4.97152 3.19172 4.70445 3.38747 4.50754C3.58322 4.31062 3.84872 4.2 4.12555 4.2H5.16936V5.25C5.16936 5.52848 5.27933 5.79555 5.47508 5.99246C5.67083 6.18937 5.93633 6.3 6.21316 6.3H12.476C12.7528 6.3 13.0183 6.18937 13.2141 5.99246C13.4098 5.79555 13.5198 5.52848 13.5198 5.25V4.2H14.5636C14.8404 4.2 15.1059 4.31062 15.3017 4.50754C15.4974 4.70445 15.6074 4.97152 15.6074 5.25V17.85Z" fill="#C7C7C7"/>
</svg>
