<svg width="18" height="22" viewBox="0 0 18 22" fill="none" xmlns="http://www.w3.org/2000/svg">
<path d="M14 14C14.1326 14 14.2598 14.0527 14.3536 14.1464C14.4473 14.2402 14.5 14.3674 14.5 14.5V17.5H17.5C17.6326 17.5 17.7598 17.5527 17.8536 17.6464C17.9473 17.7402 18 17.8674 18 18C18 18.1326 17.9473 18.2598 17.8536 18.3536C17.7598 18.4473 17.6326 18.5 17.5 18.5H14.5V21.5C14.5 21.6326 14.4473 21.7598 14.3536 21.8536C14.2598 21.9473 14.1326 22 14 22C13.8674 22 13.7402 21.9473 13.6464 21.8536C13.5527 21.7598 13.5 21.6326 13.5 21.5V18.5H10.5C10.3674 18.5 10.2402 18.4473 10.1464 18.3536C10.0527 18.2598 10 18.1326 10 18C10 17.8674 10.0527 17.7402 10.1464 17.6464C10.2402 17.5527 10.3674 17.5 10.5 17.5H13.5V14.5C13.5 14.3674 13.5527 14.2402 13.6464 14.1464C13.7402 14.0527 13.8674 14 14 14Z" fill="#211C70"/>
<path fill-rule="evenodd" clip-rule="evenodd" d="M12.3378 2.1H13.5695C14.4 2.1 15.1964 2.43187 15.7837 3.02261C16.371 3.61335 16.7009 4.41457 16.7009 5.25V12.6408C16.0621 12.3183 15.3578 12.1065 14.6133 12.031V5.25C14.6133 4.97152 14.5033 4.70445 14.3075 4.50754C14.1118 4.31062 13.8463 4.2 13.5695 4.2H12.5257V5.25C12.5257 5.52848 12.4157 5.79555 12.2199 5.99246C12.0242 6.18937 11.7587 6.3 11.4818 6.3H5.21902C4.94219 6.3 4.67669 6.18937 4.48094 5.99246C4.28519 5.79555 4.17522 5.52848 4.17522 5.25V4.2H3.13141C2.85458 4.2 2.58908 4.31062 2.39333 4.50754C2.19758 4.70445 2.08761 4.97152 2.08761 5.25V17.85C2.08761 18.1285 2.19758 18.3955 2.39333 18.5925C2.58908 18.7894 2.85458 18.9 3.13141 18.9H8.06705C8.18066 19.6553 8.43507 20.3645 8.80269 21H3.13141C2.30091 21 1.50442 20.6681 0.91717 20.0774C0.329916 19.4866 0 18.6854 0 17.85V5.25C0 4.41457 0.329916 3.61335 0.91717 3.02261C1.50442 2.43187 2.30091 2.1 3.13141 2.1H4.3631C4.57845 1.48727 4.97693 0.956548 5.50391 0.580585C6.03089 0.204622 6.66057 0.00182649 7.30663 0H9.39424C10.0403 0.00182649 10.67 0.204622 11.197 0.580585C11.7239 0.956548 12.1224 1.48727 12.3378 2.1ZM6.56855 2.40754C6.3728 2.60445 6.26283 2.87152 6.26283 3.15V4.2H10.438V3.15C10.438 2.87152 10.3281 2.60445 10.1323 2.40754C9.93657 2.21062 9.67107 2.1 9.39424 2.1H7.30663C7.0298 2.1 6.7643 2.21062 6.56855 2.40754Z" fill="#211C70"/>
</svg>
