<svg width="10" height="10" viewBox="0 0 10 10" fill="none" xmlns="http://www.w3.org/2000/svg">
<path d="M9.31712 3.19097L6.43074 2.77753L5.14045 0.199439C5.10521 0.128853 5.04723 0.0717112 4.97561 0.0369781C4.79599 -0.0504149 4.57772 0.0224126 4.48792 0.199439L3.19763 2.77753L0.311243 3.19097C0.231666 3.20217 0.158909 3.23915 0.103205 3.29517C0.0358622 3.36339 -0.00124699 3.45517 3.19968e-05 3.55034C0.00131098 3.64551 0.0408735 3.73628 0.110026 3.80272L2.19836 5.8094L1.70498 8.64295C1.69341 8.70886 1.70081 8.77665 1.72635 8.83863C1.75188 8.90061 1.79452 8.9543 1.84944 8.99361C1.90435 9.03292 1.96935 9.05628 2.03705 9.06104C2.10475 9.0658 2.17245 9.05176 2.23247 9.02053L4.81418 7.68275L7.3959 9.02053C7.46638 9.05751 7.54823 9.06983 7.62667 9.05638C7.82448 9.02277 7.95749 8.8379 7.92338 8.64295L7.43 5.8094L9.51834 3.80272C9.57518 3.74782 9.61269 3.67611 9.62406 3.59768C9.65476 3.40161 9.51606 3.2201 9.31712 3.19097Z" fill="#FFA235"/>
</svg>
